<?xml version="1.0" encoding="utf-8"?>
<!-- Generator: Adobe Illustrator 22.0.0, SVG Export Plug-In . SVG Version: 6.00 Build 0)  -->
<svg version="1.1" id="Camada_1" xmlns="http://www.w3.org/2000/svg" xmlns:xlink="http://www.w3.org/1999/xlink" x="0px" y="0px"
	 viewBox="0 0 150 101" style="enable-background:new 0 0 150 101;" xml:space="preserve">
<style type="text/css">
	.st0{fill:#1E1E1E;}
	.st1{fill:#E5E5E3;}
</style>
<g>
	<g>
		<path class="st0" d="M97.8,30.9c0,0-0.1-0.1-0.1-0.2c0,0,0,0,0-0.1l2.2-6.3c0-0.1,0.1-0.2,0.1-0.2c0.1-0.1,0.2-0.1,0.3-0.1h2.1
			c0.1,0,0.2,0,0.3,0.1c0.1,0.1,0.1,0.1,0.1,0.2l2.2,6.3c0,0,0,0,0,0.1c0,0.1,0,0.1-0.1,0.2c0,0-0.1,0.1-0.2,0.1h-1.8
			c-0.2,0-0.3-0.1-0.4-0.2l-0.2-0.6h-2.1l-0.2,0.6c-0.1,0.2-0.2,0.2-0.4,0.2h-1.8C97.9,30.9,97.8,30.9,97.8,30.9z M100.9,28.1h1.1
			l-0.6-1.8L100.9,28.1z"/>
		<path class="st0" d="M107.4,30.9c-0.1-0.1-0.1-0.1-0.1-0.2v-6.3c0-0.1,0-0.1,0.1-0.2c0.1-0.1,0.1-0.1,0.2-0.1h1.6
			c0.2,0,0.3,0.1,0.4,0.3l1.4,2.4l1.4-2.4c0.1-0.2,0.2-0.3,0.4-0.3h1.6c0.1,0,0.1,0,0.2,0.1c0.1,0.1,0.1,0.1,0.1,0.2v6.3
			c0,0.1,0,0.1-0.1,0.2c-0.1,0.1-0.1,0.1-0.2,0.1h-1.8c-0.1,0-0.1,0-0.2-0.1c-0.1-0.1-0.1-0.1-0.1-0.2V28l-0.6,1.1
			c0,0.1-0.1,0.1-0.2,0.2c-0.1,0-0.1,0.1-0.2,0.1h-0.7c-0.1,0-0.2,0-0.2-0.1c-0.1,0-0.1-0.1-0.2-0.2l-0.6-1.1v2.7
			c0,0.1,0,0.1-0.1,0.2c-0.1,0.1-0.1,0.1-0.2,0.1h-1.8C107.5,30.9,107.4,30.9,107.4,30.9z"/>
		<path class="st0" d="M115.2,30.9c0,0-0.1-0.1-0.1-0.2c0,0,0,0,0-0.1l2.2-6.3c0-0.1,0.1-0.2,0.1-0.2c0.1-0.1,0.2-0.1,0.3-0.1h2.1
			c0.1,0,0.2,0,0.3,0.1c0.1,0.1,0.1,0.1,0.1,0.2l2.2,6.3c0,0,0,0,0,0.1c0,0.1,0,0.1-0.1,0.2c0,0-0.1,0.1-0.2,0.1h-1.8
			c-0.2,0-0.3-0.1-0.4-0.2l-0.2-0.6h-2.1l-0.2,0.6c-0.1,0.2-0.2,0.2-0.4,0.2h-1.8C115.3,30.9,115.2,30.9,115.2,30.9z M117.8,23.4
			c0-0.1,0-0.1,0-0.1l1-1.2c0.1-0.1,0.1-0.1,0.2-0.2c0,0,0.1,0,0.2,0h1.9c0.1,0,0.1,0,0.1,0.1c0,0,0,0.1,0,0.1c0,0,0,0.1,0,0.1
			l-1.4,1.2c-0.1,0.1-0.1,0.1-0.2,0.1c-0.1,0-0.1,0-0.2,0h-1.4C117.8,23.6,117.8,23.5,117.8,23.4z M118.3,28.1h1.1l-0.6-1.8
			L118.3,28.1z"/>
		<path class="st0" d="M122.6,30.9c0,0-0.1-0.1-0.1-0.2c0,0,0-0.1,0-0.1l2.1-3.2l-1.9-3c0,0,0-0.1,0-0.1c0-0.1,0-0.1,0.1-0.2
			c0,0,0.1-0.1,0.2-0.1h2.1c0.2,0,0.3,0.1,0.4,0.2l0.7,1.2l0.7-1.2c0.1-0.2,0.2-0.2,0.4-0.2h2c0.1,0,0.1,0,0.2,0.1
			c0,0,0.1,0.1,0.1,0.2c0,0,0,0.1,0,0.1l-1.9,3l2.1,3.2c0,0,0,0.1,0,0.1c0,0.1,0,0.1-0.1,0.2c0,0-0.1,0.1-0.2,0.1h-2.2
			c-0.2,0-0.3-0.1-0.4-0.2l-0.9-1.3l-0.8,1.3c-0.1,0.2-0.2,0.2-0.4,0.2h-2.1C122.7,30.9,122.7,30.9,122.6,30.9z"/>
		<path class="st0" d="M130.4,30.9c-0.1-0.1-0.1-0.1-0.1-0.2v-6.3c0-0.1,0-0.1,0.1-0.2c0.1-0.1,0.1-0.1,0.2-0.1h2
			c0.1,0,0.1,0,0.2,0.1c0.1,0.1,0.1,0.1,0.1,0.2v6.3c0,0.1,0,0.1-0.1,0.2c-0.1,0.1-0.1,0.1-0.2,0.1h-2
			C130.5,30.9,130.5,30.9,130.4,30.9z"/>
		<path class="st0" d="M134,30.9c-0.1-0.1-0.1-0.1-0.1-0.2v-6.3c0-0.1,0-0.1,0.1-0.2c0.1-0.1,0.1-0.1,0.2-0.1h1.6
			c0.2,0,0.3,0.1,0.4,0.3l1.4,2.4l1.4-2.4c0.1-0.2,0.2-0.3,0.4-0.3h1.6c0.1,0,0.1,0,0.2,0.1c0.1,0.1,0.1,0.1,0.1,0.2v6.3
			c0,0.1,0,0.1-0.1,0.2c-0.1,0.1-0.1,0.1-0.2,0.1h-1.8c-0.1,0-0.1,0-0.2-0.1c-0.1-0.1-0.1-0.1-0.1-0.2V28l-0.6,1.1
			c0,0.1-0.1,0.1-0.2,0.2c-0.1,0-0.1,0.1-0.2,0.1h-0.7c-0.1,0-0.2,0-0.2-0.1c-0.1,0-0.1-0.1-0.2-0.2l-0.6-1.1v2.7
			c0,0.1,0,0.1-0.1,0.2c-0.1,0.1-0.1,0.1-0.2,0.1h-1.8C134.1,30.9,134.1,30.9,134,30.9z"/>
		<path class="st0" d="M141.9,30.9c0,0-0.1-0.1-0.1-0.2c0,0,0,0,0-0.1l2.2-6.3c0-0.1,0.1-0.2,0.1-0.2c0.1-0.1,0.2-0.1,0.3-0.1h2.1
			c0.1,0,0.2,0,0.3,0.1c0.1,0.1,0.1,0.1,0.1,0.2l2.2,6.3c0,0,0,0,0,0.1c0,0.1,0,0.1-0.1,0.2c0,0-0.1,0.1-0.2,0.1h-1.8
			c-0.2,0-0.3-0.1-0.4-0.2l-0.2-0.6h-2.1l-0.2,0.6c-0.1,0.2-0.2,0.2-0.4,0.2H142C142,30.9,141.9,30.9,141.9,30.9z M145,28.1h1.1
			l-0.6-1.8L145,28.1z"/>
	</g>
	<g>
		<path class="st0" d="M98.4,41.4c0,0-0.1-0.1-0.1-0.2v-5.9c0-0.1,0-0.1,0.1-0.2c0,0,0.1-0.1,0.2-0.1h2.4c0.9,0,1.6,0.2,2.1,0.6
			s0.8,1,0.8,1.8c0,0.2,0,0.4,0,0.7c0,0.3,0,0.5,0,0.7c-0.1,1.7-1,2.5-2.8,2.5h-2.4C98.5,41.5,98.5,41.4,98.4,41.4z M100.9,40.1
			c0.4,0,0.7-0.1,0.8-0.3c0.2-0.2,0.3-0.5,0.3-0.9c0-0.2,0-0.4,0-0.7c0-0.3,0-0.5,0-0.7c0-0.4-0.1-0.7-0.3-0.9
			c-0.2-0.2-0.5-0.3-0.9-0.3H100v3.6H100.9z"/>
		<path class="st0" d="M104.2,41.4c0,0-0.1-0.1-0.1-0.1c0,0,0-0.1,0-0.1l2.1-5.8c0.1-0.2,0.2-0.3,0.4-0.3h1.4c0.2,0,0.3,0.1,0.4,0.3
			l2.1,5.8c0,0,0,0,0,0.1c0,0,0,0.1-0.1,0.1c0,0-0.1,0.1-0.1,0.1h-1.2c-0.1,0-0.2-0.1-0.3-0.2l-0.3-0.9h-2.4l-0.3,0.9
			c-0.1,0.1-0.2,0.2-0.3,0.2h-1.2C104.3,41.5,104.3,41.4,104.2,41.4z M106.5,39h1.6l-0.8-2.3L106.5,39z"/>
		<path class="st0" d="M112.9,41.4c0,0-0.1-0.1-0.1-0.2v-5.9c0-0.1,0-0.1,0.1-0.2c0,0,0.1-0.1,0.2-0.1h1c0.2,0,0.3,0.1,0.3,0.2
			l1.6,2.8l1.6-2.8c0.1-0.1,0.2-0.2,0.3-0.2h1c0.1,0,0.1,0,0.2,0.1c0,0,0.1,0.1,0.1,0.2v5.9c0,0.1,0,0.1-0.1,0.2
			c0,0-0.1,0.1-0.2,0.1h-1.1c-0.1,0-0.1,0-0.2-0.1c0,0-0.1-0.1-0.1-0.2v-3.3l-1,1.8c-0.1,0.1-0.2,0.2-0.3,0.2h-0.5
			c-0.1,0-0.2-0.1-0.3-0.2l-1-1.8v3.3c0,0.1,0,0.1-0.1,0.2c0,0-0.1,0.1-0.2,0.1h-1.1C113,41.5,113,41.4,112.9,41.4z"/>
		<path class="st0" d="M119.9,41.4c0,0-0.1-0.1-0.1-0.1c0,0,0-0.1,0-0.1l2.1-5.8c0.1-0.2,0.2-0.3,0.4-0.3h1.4c0.2,0,0.3,0.1,0.4,0.3
			l2.1,5.8c0,0,0,0,0,0.1c0,0,0,0.1-0.1,0.1c0,0-0.1,0.1-0.1,0.1h-1.2c-0.1,0-0.2-0.1-0.3-0.2l-0.3-0.9h-2.4l-0.3,0.9
			c-0.1,0.1-0.2,0.2-0.3,0.2H120C120,41.5,119.9,41.4,119.9,41.4z M122.2,39h1.6l-0.8-2.3L122.2,39z M122.3,34.5c0,0,0-0.1,0-0.1
			l0.8-1c0.1-0.1,0.1-0.1,0.2-0.1c0,0,0.1,0,0.2,0h1.3c0.1,0,0.1,0,0.1,0c0,0,0,0.1,0,0.1c0,0,0,0.1,0,0.1l-1.2,1
			c-0.1,0-0.1,0.1-0.2,0.1c0,0-0.1,0-0.2,0h-0.9C122.3,34.7,122.3,34.6,122.3,34.5z"/>
		<path class="st0" d="M126.4,41.4c0,0-0.1-0.1-0.1-0.1c0,0,0-0.1,0-0.1l2-2.9l-1.8-2.8c0,0,0-0.1,0-0.1c0,0,0-0.1,0.1-0.1
			c0,0,0.1-0.1,0.1-0.1h1.4c0.1,0,0.2,0.1,0.3,0.2l1,1.6l1.1-1.6c0.1-0.1,0.2-0.2,0.3-0.2h1.3c0,0,0.1,0,0.1,0.1
			c0,0,0.1,0.1,0.1,0.1c0,0,0,0.1,0,0.1l-1.8,2.8l2,2.9c0,0,0,0.1,0,0.1c0,0,0,0.1-0.1,0.1c0,0-0.1,0.1-0.1,0.1h-1.4
			c-0.1,0-0.2-0.1-0.3-0.2l-1.2-1.7l-1.1,1.7c-0.1,0.1-0.2,0.2-0.3,0.2h-1.4C126.5,41.5,126.5,41.4,126.4,41.4z"/>
		<path class="st0" d="M133.3,41.4c0,0-0.1-0.1-0.1-0.2v-5.9c0-0.1,0-0.1,0.1-0.2c0,0,0.1-0.1,0.2-0.1h1.3c0.1,0,0.1,0,0.2,0.1
			c0,0,0.1,0.1,0.1,0.2v5.9c0,0.1,0,0.1-0.1,0.2c0,0-0.1,0.1-0.2,0.1h-1.3C133.4,41.5,133.3,41.4,133.3,41.4z"/>
		<path class="st0" d="M136.2,41.4c0,0-0.1-0.1-0.1-0.2v-5.9c0-0.1,0-0.1,0.1-0.2c0,0,0.1-0.1,0.2-0.1h1c0.2,0,0.3,0.1,0.3,0.2
			l1.6,2.8l1.6-2.8c0.1-0.1,0.2-0.2,0.3-0.2h1c0.1,0,0.1,0,0.2,0.1c0,0,0.1,0.1,0.1,0.2v5.9c0,0.1,0,0.1-0.1,0.2
			c0,0-0.1,0.1-0.2,0.1h-1.1c-0.1,0-0.1,0-0.2-0.1c0,0-0.1-0.1-0.1-0.2v-3.3l-1,1.8c-0.1,0.1-0.2,0.2-0.3,0.2h-0.5
			c-0.1,0-0.2-0.1-0.3-0.2l-1-1.8v3.3c0,0.1,0,0.1-0.1,0.2c0,0-0.1,0.1-0.2,0.1h-1.1C136.3,41.5,136.3,41.4,136.2,41.4z"/>
		<path class="st0" d="M143.2,41.4c0,0-0.1-0.1-0.1-0.1c0,0,0-0.1,0-0.1l2.1-5.8c0.1-0.2,0.2-0.3,0.4-0.3h1.4c0.2,0,0.3,0.1,0.4,0.3
			l2.1,5.8c0,0,0,0,0,0.1c0,0,0,0.1-0.1,0.1c0,0-0.1,0.1-0.1,0.1h-1.2c-0.1,0-0.2-0.1-0.3-0.2l-0.3-0.9h-2.4l-0.3,0.9
			c-0.1,0.1-0.2,0.2-0.3,0.2h-1.2C143.3,41.5,143.2,41.4,143.2,41.4z M145.5,39h1.6l-0.8-2.3L145.5,39z"/>
	</g>
	<g>
		<path class="st0" d="M98.3,52.1c0,0-0.1-0.1-0.1-0.2v-6c0-0.1,0-0.1,0.1-0.2c0,0,0.1-0.1,0.2-0.1h4.7c0.1,0,0.1,0,0.2,0.1
			c0,0,0.1,0.1,0.1,0.2v1.3c0,0.1,0,0.1-0.1,0.2c0,0-0.1,0.1-0.2,0.1h-2.8V48h2.6c0.1,0,0.1,0,0.2,0.1c0,0,0.1,0.1,0.1,0.2v1.2
			c0,0.1,0,0.1-0.1,0.2c0,0-0.1,0.1-0.2,0.1h-2.6v0.6h2.9c0.1,0,0.1,0,0.2,0.1c0,0,0.1,0.1,0.1,0.2v1.3c0,0.1,0,0.1-0.1,0.2
			c0,0-0.1,0.1-0.2,0.1h-4.8C98.4,52.1,98.4,52.1,98.3,52.1z"/>
		<path class="st0" d="M105.1,51.6c-0.5-0.4-0.8-1-0.9-1.9c0-0.2,0-0.4,0-0.8c0-0.4,0-0.7,0-0.8c0-0.8,0.3-1.5,0.9-1.9
			c0.6-0.4,1.3-0.6,2.2-0.6c0.6,0,1.1,0.1,1.5,0.2c0.5,0.2,0.8,0.4,1.1,0.8c0.3,0.4,0.4,0.8,0.4,1.3c0,0.1,0,0.1-0.1,0.1
			c0,0-0.1,0.1-0.1,0.1h-1.9c-0.1,0-0.2,0-0.2-0.1c0,0-0.1-0.1-0.1-0.2c-0.1-0.2-0.2-0.3-0.3-0.4c-0.1-0.1-0.3-0.1-0.4-0.1
			c-0.2,0-0.4,0.1-0.5,0.2c-0.1,0.1-0.2,0.3-0.2,0.6c0,0.2,0,0.4,0,0.8c0,0.3,0,0.6,0,0.8c0,0.3,0.1,0.5,0.2,0.6
			c0.1,0.1,0.3,0.2,0.5,0.2c0.4,0,0.6-0.2,0.7-0.5c0-0.1,0.1-0.2,0.1-0.2c0,0,0.1-0.1,0.2-0.1h1.9c0.1,0,0.1,0,0.1,0.1
			c0,0,0.1,0.1,0.1,0.1c0,0.5-0.2,1-0.4,1.3c-0.3,0.4-0.7,0.6-1.1,0.8c-0.5,0.2-1,0.2-1.5,0.2C106.4,52.2,105.6,52,105.1,51.6z"/>
		<path class="st0" d="M111.9,51.6c-0.5-0.4-0.8-1-0.9-1.9c0-0.2,0-0.4,0-0.8c0-0.4,0-0.7,0-0.8c0-0.5,0.2-1,0.4-1.4
			c0.3-0.4,0.6-0.7,1.1-0.9c0.5-0.2,1-0.3,1.6-0.3s1.1,0.1,1.6,0.3c0.5,0.2,0.8,0.5,1.1,0.9c0.3,0.4,0.4,0.8,0.4,1.4
			c0,0.3,0,0.6,0,0.8c0,0.2,0,0.5,0,0.8c0,0.8-0.3,1.4-0.9,1.9c-0.5,0.4-1.3,0.6-2.2,0.6C113.2,52.2,112.4,52,111.9,51.6z
			 M114.6,50.2c0.1-0.1,0.2-0.3,0.2-0.6c0-0.4,0-0.6,0-0.8c0-0.2,0-0.4,0-0.8c0-0.3-0.1-0.4-0.2-0.6c-0.1-0.1-0.3-0.2-0.5-0.2
			c-0.2,0-0.4,0.1-0.5,0.2c-0.1,0.1-0.2,0.3-0.2,0.6c0,0.2,0,0.4,0,0.8c0,0.3,0,0.6,0,0.8c0,0.3,0.1,0.4,0.2,0.6
			c0.1,0.1,0.3,0.2,0.5,0.2C114.3,50.4,114.5,50.4,114.6,50.2z"/>
		<path class="st0" d="M118.1,52.1c0,0-0.1-0.1-0.1-0.2v-6c0-0.1,0-0.1,0.1-0.2c0,0,0.1-0.1,0.2-0.1h1.5c0.2,0,0.3,0.1,0.4,0.2
			l1.6,2.6v-2.5c0-0.1,0-0.1,0.1-0.2c0,0,0.1-0.1,0.2-0.1h1.7c0.1,0,0.1,0,0.2,0.1c0,0,0.1,0.1,0.1,0.2v6c0,0.1,0,0.1-0.1,0.2
			c0,0-0.1,0.1-0.2,0.1h-1.5c-0.1,0-0.2,0-0.2-0.1c-0.1,0-0.1-0.1-0.1-0.1l-1.6-2.4v2.3c0,0.1,0,0.1-0.1,0.2c0,0-0.1,0.1-0.2,0.1
			h-1.7C118.2,52.1,118.1,52.1,118.1,52.1z"/>
		<path class="st0" d="M125.6,51.6c-0.5-0.4-0.8-1-0.9-1.9c0-0.2,0-0.4,0-0.8c0-0.4,0-0.7,0-0.8c0-0.5,0.2-1,0.4-1.4
			c0.3-0.4,0.6-0.7,1.1-0.9c0.5-0.2,1-0.3,1.6-0.3s1.1,0.1,1.6,0.3c0.5,0.2,0.8,0.5,1.1,0.9c0.3,0.4,0.4,0.8,0.4,1.4
			c0,0.3,0,0.6,0,0.8c0,0.2,0,0.5,0,0.8c0,0.8-0.3,1.4-0.9,1.9c-0.5,0.4-1.3,0.6-2.2,0.6C126.9,52.2,126.1,52,125.6,51.6z
			 M128.3,50.2c0.1-0.1,0.2-0.3,0.2-0.6c0-0.4,0-0.6,0-0.8c0-0.2,0-0.4,0-0.8c0-0.3-0.1-0.4-0.2-0.6c-0.1-0.1-0.3-0.2-0.5-0.2
			c-0.2,0-0.4,0.1-0.5,0.2c-0.1,0.1-0.2,0.3-0.2,0.6c0,0.2,0,0.4,0,0.8c0,0.3,0,0.6,0,0.8c0,0.3,0.1,0.4,0.2,0.6
			c0.1,0.1,0.3,0.2,0.5,0.2C128,50.4,128.2,50.4,128.3,50.2z"/>
		<path class="st0" d="M131.8,52.1c0,0-0.1-0.1-0.1-0.2v-6c0-0.1,0-0.1,0.1-0.2c0,0,0.1-0.1,0.2-0.1h1.5c0.2,0,0.3,0.1,0.4,0.2
			l1.3,2.2l1.3-2.2c0.1-0.2,0.2-0.2,0.4-0.2h1.5c0.1,0,0.1,0,0.2,0.1c0,0,0.1,0.1,0.1,0.2v6c0,0.1,0,0.1-0.1,0.2
			c0,0-0.1,0.1-0.2,0.1h-1.7c-0.1,0-0.1,0-0.2-0.1c0,0-0.1-0.1-0.1-0.2v-2.5l-0.6,1c0,0.1-0.1,0.1-0.1,0.2s-0.1,0.1-0.2,0.1h-0.6
			c-0.1,0-0.1,0-0.2-0.1s-0.1-0.1-0.1-0.2l-0.6-1v2.5c0,0.1,0,0.1-0.1,0.2c0,0-0.1,0.1-0.2,0.1H132
			C131.9,52.1,131.9,52.1,131.8,52.1z"/>
		<path class="st0" d="M139.7,52.1c0,0-0.1-0.1-0.1-0.2v-6c0-0.1,0-0.1,0.1-0.2c0,0,0.1-0.1,0.2-0.1h1.9c0.1,0,0.1,0,0.2,0.1
			c0,0,0.1,0.1,0.1,0.2v6c0,0.1,0,0.1-0.1,0.2c0,0-0.1,0.1-0.2,0.1h-1.9C139.8,52.1,139.8,52.1,139.7,52.1z"/>
		<path class="st0" d="M142.6,52.1c0,0-0.1-0.1-0.1-0.1c0,0,0,0,0-0.1l2.1-5.9c0-0.1,0.1-0.2,0.1-0.2c0.1-0.1,0.2-0.1,0.3-0.1h2
			c0.1,0,0.2,0,0.3,0.1c0.1,0.1,0.1,0.1,0.1,0.2l2.1,5.9c0,0,0,0,0,0.1c0,0.1,0,0.1-0.1,0.1c0,0-0.1,0.1-0.1,0.1h-1.7
			c-0.2,0-0.3-0.1-0.4-0.2l-0.2-0.6h-2l-0.2,0.6c-0.1,0.2-0.2,0.2-0.4,0.2h-1.7C142.7,52.1,142.7,52.1,142.6,52.1z M145.5,49.5h1
			l-0.5-1.7L145.5,49.5z"/>
	</g>
	<g>
		<path class="st0" d="M98.4,62.7c0,0-0.1-0.1-0.1-0.2v-5.8c0-0.1,0-0.1,0.1-0.2c0,0,0.1-0.1,0.2-0.1h2.5c0.8,0,1.4,0.2,1.8,0.5
			c0.4,0.4,0.7,0.9,0.7,1.6c0,0.7-0.2,1.2-0.7,1.5c-0.4,0.3-1.1,0.5-1.8,0.5h-1v1.9c0,0.1,0,0.1-0.1,0.2c0,0-0.1,0.1-0.2,0.1h-1.3
			C98.5,62.8,98.5,62.7,98.4,62.7z M101.1,59.3c0.2,0,0.4-0.1,0.6-0.2c0.1-0.1,0.2-0.3,0.2-0.6c0-0.2-0.1-0.4-0.2-0.6
			c-0.1-0.1-0.3-0.2-0.6-0.2h-1v1.5H101.1z"/>
		<path class="st0" d="M105,62.2c-0.5-0.4-0.7-1-0.8-1.8c0-0.2,0-0.4,0-0.8c0-0.3,0-0.6,0-0.8c0-0.8,0.3-1.4,0.8-1.8
			c0.5-0.4,1.2-0.6,2-0.6c0.8,0,1.5,0.2,2,0.6c0.5,0.4,0.8,1,0.8,1.8c0,0.3,0,0.6,0,0.8c0,0.2,0,0.4,0,0.8c0,0.8-0.3,1.4-0.8,1.8
			c-0.5,0.4-1.2,0.6-2,0.6C106.2,62.8,105.5,62.6,105,62.2z M107.8,61.2c0.2-0.2,0.3-0.5,0.3-0.9c0-0.3,0-0.6,0-0.7
			c0-0.1,0-0.4,0-0.7c0-0.4-0.1-0.7-0.3-0.9c-0.2-0.2-0.4-0.3-0.7-0.3c-0.3,0-0.6,0.1-0.8,0.3c-0.2,0.2-0.3,0.5-0.3,0.9
			c0,0.2,0,0.4,0,0.7c0,0.3,0,0.6,0,0.7c0,0.4,0.1,0.7,0.3,0.9c0.2,0.2,0.4,0.3,0.8,0.3C107.3,61.5,107.6,61.4,107.8,61.2z"/>
		<path class="st0" d="M110.9,62.7c0,0-0.1-0.1-0.1-0.2v-5.8c0-0.1,0-0.1,0.1-0.2c0,0,0.1-0.1,0.2-0.1h2.5c0.8,0,1.4,0.2,1.9,0.5
			c0.4,0.4,0.7,0.9,0.7,1.5c0,0.4-0.1,0.8-0.3,1.1c-0.2,0.3-0.5,0.5-0.8,0.7l1.2,2.2c0,0,0,0.1,0,0.1c0,0,0,0.1-0.1,0.1
			c0,0-0.1,0.1-0.1,0.1h-1.3c-0.2,0-0.3-0.1-0.4-0.2l-1-1.9h-0.9v2c0,0.1,0,0.1-0.1,0.2c0,0-0.1,0.1-0.2,0.1h-1.2
			C111,62.8,110.9,62.7,110.9,62.7z M113.5,59.2c0.3,0,0.5-0.1,0.6-0.2c0.1-0.1,0.2-0.3,0.2-0.5c0-0.2-0.1-0.4-0.2-0.5
			c-0.1-0.1-0.3-0.2-0.6-0.2h-1v1.5H113.5z"/>
		<path class="st0" d="M120.2,62.7c0,0-0.1-0.1-0.1-0.2v-4.6h-1.6c-0.1,0-0.1,0-0.2-0.1c0,0-0.1-0.1-0.1-0.2v-1c0-0.1,0-0.1,0.1-0.2
			c0,0,0.1-0.1,0.2-0.1h4.9c0.1,0,0.1,0,0.2,0.1c0,0,0.1,0.1,0.1,0.2v1c0,0.1,0,0.1-0.1,0.2c0,0-0.1,0.1-0.2,0.1h-1.6v4.6
			c0,0.1,0,0.1-0.1,0.2c0,0-0.1,0.1-0.2,0.1h-1.2C120.3,62.8,120.2,62.7,120.2,62.7z"/>
		<path class="st0" d="M124.5,62.7c0,0-0.1-0.1-0.1-0.2v-5.8c0-0.1,0-0.1,0.1-0.2c0,0,0.1-0.1,0.2-0.1h4.2c0.1,0,0.1,0,0.2,0.1
			c0,0,0.1,0.1,0.1,0.2v0.9c0,0.1,0,0.1-0.1,0.2c0,0-0.1,0.1-0.2,0.1h-2.8V59h2.6c0.1,0,0.1,0,0.2,0.1c0,0,0.1,0.1,0.1,0.2V60
			c0,0.1,0,0.1-0.1,0.2c0,0-0.1,0.1-0.2,0.1h-2.6v1.2h2.9c0.1,0,0.1,0,0.2,0.1c0,0,0.1,0.1,0.1,0.2v0.9c0,0.1,0,0.1-0.1,0.2
			c0,0-0.1,0.1-0.2,0.1h-4.3C124.6,62.8,124.5,62.7,124.5,62.7z"/>
		<path class="st0" d="M130.3,62.7c0,0-0.1-0.1-0.1-0.2v-5.8c0-0.1,0-0.1,0.1-0.2c0,0,0.1-0.1,0.2-0.1h1c0.1,0,0.3,0.1,0.3,0.2
			l1.5,2.8l1.6-2.8c0.1-0.1,0.2-0.2,0.3-0.2h1c0.1,0,0.1,0,0.2,0.1c0,0,0.1,0.1,0.1,0.2v5.8c0,0.1,0,0.1-0.1,0.2
			c0,0-0.1,0.1-0.2,0.1H135c-0.1,0-0.1,0-0.2-0.1c0,0-0.1-0.1-0.1-0.2v-3.3l-1,1.8c-0.1,0.1-0.2,0.2-0.3,0.2h-0.5
			c-0.1,0-0.2-0.1-0.3-0.2l-1-1.8v3.3c0,0.1,0,0.1-0.1,0.2c0,0-0.1,0.1-0.2,0.1h-1.1C130.4,62.8,130.3,62.7,130.3,62.7z"/>
		<path class="st0" d="M137.7,62.7c0,0-0.1-0.1-0.1-0.2v-5.8c0-0.1,0-0.1,0.1-0.2c0,0,0.1-0.1,0.2-0.1h2.5c0.8,0,1.4,0.2,1.8,0.5
			c0.4,0.4,0.7,0.9,0.7,1.6c0,0.7-0.2,1.2-0.7,1.5c-0.4,0.3-1.1,0.5-1.8,0.5h-1v1.9c0,0.1,0,0.1-0.1,0.2c0,0-0.1,0.1-0.2,0.1h-1.3
			C137.8,62.8,137.7,62.7,137.7,62.7z M140.3,59.3c0.2,0,0.4-0.1,0.6-0.2c0.1-0.1,0.2-0.3,0.2-0.6c0-0.2-0.1-0.4-0.2-0.6
			c-0.1-0.1-0.3-0.2-0.6-0.2h-1v1.5H140.3z"/>
		<path class="st0" d="M144.3,62.2c-0.5-0.4-0.7-1-0.8-1.8c0-0.2,0-0.4,0-0.8c0-0.3,0-0.6,0-0.8c0-0.8,0.3-1.4,0.8-1.8
			c0.5-0.4,1.2-0.6,2-0.6c0.8,0,1.5,0.2,2,0.6c0.5,0.4,0.8,1,0.8,1.8c0,0.3,0,0.6,0,0.8c0,0.2,0,0.4,0,0.8c0,0.8-0.3,1.4-0.8,1.8
			c-0.5,0.4-1.2,0.6-2,0.6C145.5,62.8,144.8,62.6,144.3,62.2z M147.1,61.2c0.2-0.2,0.3-0.5,0.3-0.9c0-0.3,0-0.6,0-0.7
			c0-0.1,0-0.4,0-0.7c0-0.4-0.1-0.7-0.3-0.9c-0.2-0.2-0.4-0.3-0.7-0.3c-0.3,0-0.6,0.1-0.8,0.3c-0.2,0.2-0.3,0.5-0.3,0.9
			c0,0.2,0,0.4,0,0.7c0,0.3,0,0.6,0,0.7c0,0.4,0.1,0.7,0.3,0.9c0.2,0.2,0.4,0.3,0.8,0.3C146.6,61.5,146.9,61.4,147.1,61.2z"/>
	</g>
	<g>
		<path class="st0" d="M98.4,74.1c-0.1-0.1-0.1-0.1-0.1-0.2v-6.6c0-0.1,0-0.1,0.1-0.2c0.1-0.1,0.1-0.1,0.2-0.1h2
			c0.1,0,0.1,0,0.2,0.1c0.1,0.1,0.1,0.1,0.1,0.2v4.8h2.8c0.1,0,0.1,0,0.2,0.1c0.1,0.1,0.1,0.1,0.1,0.2v1.5c0,0.1,0,0.1-0.1,0.2
			c-0.1,0.1-0.1,0.1-0.2,0.1h-5.1C98.5,74.2,98.4,74.2,98.4,74.1z"/>
		<path class="st0" d="M104.8,74.1c-0.1-0.1-0.1-0.1-0.1-0.2v-6.6c0-0.1,0-0.1,0.1-0.2c0.1-0.1,0.1-0.1,0.2-0.1h2.1
			c0.1,0,0.1,0,0.2,0.1c0.1,0.1,0.1,0.1,0.1,0.2v6.6c0,0.1,0,0.1-0.1,0.2c-0.1,0.1-0.1,0.1-0.2,0.1H105
			C104.9,74.2,104.8,74.2,104.8,74.1z"/>
		<path class="st0" d="M108.5,74.1c-0.1-0.1-0.1-0.1-0.1-0.2v-6.6c0-0.1,0-0.1,0.1-0.2c0.1-0.1,0.1-0.1,0.2-0.1h1.6
			c0.2,0,0.3,0.1,0.4,0.3l1.5,2.5l1.5-2.5c0.1-0.2,0.2-0.3,0.4-0.3h1.6c0.1,0,0.1,0,0.2,0.1c0.1,0.1,0.1,0.1,0.1,0.2v6.6
			c0,0.1,0,0.1-0.1,0.2c-0.1,0.1-0.1,0.1-0.2,0.1h-1.8c-0.1,0-0.1,0-0.2-0.1c-0.1-0.1-0.1-0.1-0.1-0.2v-2.8l-0.7,1.1
			c0,0.1-0.1,0.1-0.2,0.2c-0.1,0-0.1,0.1-0.2,0.1h-0.7c-0.1,0-0.2,0-0.2-0.1c-0.1,0-0.1-0.1-0.2-0.2l-0.7-1.1v2.8
			c0,0.1,0,0.1-0.1,0.2c-0.1,0.1-0.1,0.1-0.2,0.1h-1.8C108.6,74.2,108.6,74.2,108.5,74.1z"/>
		<path class="st0" d="M117.3,74.1c-0.1-0.1-0.1-0.1-0.1-0.2v-6.6c0-0.1,0-0.1,0.1-0.2c0.1-0.1,0.1-0.1,0.2-0.1h2.1
			c0.1,0,0.1,0,0.2,0.1c0.1,0.1,0.1,0.1,0.1,0.2v6.6c0,0.1,0,0.1-0.1,0.2c-0.1,0.1-0.1,0.1-0.2,0.1h-2.1
			C117.4,74.2,117.3,74.2,117.3,74.1z"/>
		<path class="st0" d="M122.6,74.1c-0.1-0.1-0.1-0.1-0.1-0.2v-4.7h-1.7c-0.1,0-0.1,0-0.2-0.1c-0.1-0.1-0.1-0.1-0.1-0.2v-1.6
			c0-0.1,0-0.1,0.1-0.2c0.1-0.1,0.1-0.1,0.2-0.1h6c0.1,0,0.1,0,0.2,0.1c0.1,0.1,0.1,0.1,0.1,0.2V69c0,0.1,0,0.1-0.1,0.2
			c-0.1,0.1-0.1,0.1-0.2,0.1h-1.7v4.7c0,0.1,0,0.1-0.1,0.2c-0.1,0.1-0.1,0.1-0.2,0.1h-2C122.7,74.2,122.7,74.2,122.6,74.1z"/>
		<path class="st0" d="M126.6,74.2c0,0-0.1-0.1-0.1-0.2c0,0,0-0.1,0-0.1l2.3-6.5c0-0.1,0.1-0.2,0.2-0.2c0.1-0.1,0.2-0.1,0.3-0.1h2.2
			c0.1,0,0.2,0,0.3,0.1c0.1,0.1,0.1,0.1,0.2,0.2l2.3,6.5c0,0,0,0,0,0.1c0,0.1,0,0.1-0.1,0.2c0,0-0.1,0.1-0.2,0.1h-1.9
			c-0.2,0-0.3-0.1-0.4-0.3l-0.2-0.7h-2.2l-0.2,0.7c-0.1,0.2-0.2,0.3-0.4,0.3h-1.9C126.7,74.2,126.7,74.2,126.6,74.2z M129.8,71.3
			h1.2l-0.6-1.9L129.8,71.3z"/>
		<path class="st0" d="M134.9,74.1c-0.1-0.1-0.1-0.1-0.1-0.2v-6.6c0-0.1,0-0.1,0.1-0.2c0.1-0.1,0.1-0.1,0.2-0.1h2.9
			c0.6,0,1.2,0.1,1.7,0.3c0.5,0.2,0.9,0.5,1.2,1c0.3,0.4,0.5,0.9,0.5,1.5c0,0.4,0,0.6,0,0.8c0,0.1,0,0.4,0,0.7c0,0.9-0.4,1.6-1,2.1
			c-0.6,0.5-1.4,0.7-2.4,0.7h-3C135,74.2,135,74.2,134.9,74.1z M138,72.2c0.2,0,0.4-0.1,0.6-0.2c0.1-0.1,0.2-0.3,0.2-0.6
			c0-0.2,0-0.5,0-0.8c0-0.3,0-0.6,0-0.8c0-0.3-0.1-0.5-0.3-0.6c-0.2-0.1-0.4-0.2-0.6-0.2h-0.6v3.2H138z"/>
		<path class="st0" d="M143.2,73.6c-0.6-0.5-0.9-1.2-1-2.1c0-0.2,0-0.5,0-0.9c0-0.4,0-0.7,0-0.9c0-0.6,0.2-1.1,0.5-1.5
			c0.3-0.4,0.7-0.7,1.2-1c0.5-0.2,1.1-0.3,1.8-0.3c0.7,0,1.3,0.1,1.8,0.3c0.5,0.2,0.9,0.5,1.2,1c0.3,0.4,0.4,0.9,0.5,1.5
			c0,0.4,0,0.7,0,0.9c0,0.2,0,0.5,0,0.9c0,0.9-0.4,1.6-1,2.1c-0.6,0.5-1.4,0.7-2.4,0.7C144.6,74.3,143.8,74.1,143.2,73.6z
			 M146.2,72.1c0.1-0.1,0.2-0.3,0.2-0.6c0-0.4,0-0.7,0-0.9c0-0.2,0-0.5,0-0.8c0-0.3-0.1-0.5-0.2-0.6c-0.1-0.1-0.3-0.2-0.5-0.2
			c-0.2,0-0.4,0.1-0.5,0.2c-0.1,0.1-0.2,0.3-0.2,0.6c0,0.2,0,0.5,0,0.8c0,0.4,0,0.7,0,0.9c0,0.3,0.1,0.5,0.2,0.6
			c0.1,0.1,0.3,0.2,0.5,0.2C145.8,72.3,146,72.3,146.2,72.1z"/>
	</g>
	<g>
		<path class="st1" d="M53.5,74.1L53.1,74c-0.1,0.2-0.3,0.3-0.4,0.5c0.6,1.4-0.1,3.7,1.2,4.6C54.2,77.1,53.7,75.7,53.5,74.1z"/>
		<path class="st1" d="M20.3,69.2v-1c-1.7,1.1-3.3,2.2-5,3.3C14.5,72,13.1,72,13,73.4c1.1,0.6,2.1-0.6,2.9-1.1
			C17.3,71.2,18.8,70.2,20.3,69.2z"/>
		<path class="st1" d="M14.9,62.2c1.3,0.7,2.6-0.5,3.9-1c0.5-0.2,1-0.4,1.5-0.6v-0.9c-0.3,0.1-0.6,0.2-0.9,0.3
			C17.8,60.6,16.2,61.2,14.9,62.2z"/>
		<path class="st1" d="M54.4,81.1l-0.4-0.1c-0.1,0.3-0.4,0.1-0.4,0.5c0.7,4.8,1.2,10.3,1.9,15.2c0.1,0.5,0,1.8,1,1.8
			c0.8-0.3,0.5-1.4,0.4-2C56.2,91.4,55.3,86,54.4,81.1z"/>
		<path class="st1" d="M20.3,52.8c-1.2,0.1-2.7,0-3.6,1c0.9,0.7,1.9,0,2.8-0.1c0.3,0,0.5-0.1,0.8-0.1V52.8z"/>
		<path class="st1" d="M30.1,70.1v-1c-0.4,0.5-0.8,1-1.1,1.7c0.3,0,0.7-0.2,1.1-0.5C30.1,70.2,30.1,70.2,30.1,70.1z"/>
		<path class="st1" d="M36.3,70.9c-1.4,2.1-2.8,4.3-3.6,6.6c1,0.1,1.3-1.1,1.7-1.8c0.9-1.6,1.8-3.2,2.7-4.8L36.3,70.9
			C36.3,70.9,36.3,70.9,36.3,70.9z"/>
		<path class="st1" d="M47.8,68.3c-0.8,6.9-1.4,14.6-2.1,21.4c-0.1,1-0.8,2.6,0.3,3.3c0.9-1.5,0.8-3.5,0.9-5.2
			c0.5-6.9,1.1-13.4,1.3-19.9l-0.4-0.1C47.7,68,47.6,68.2,47.8,68.3z"/>
		<path class="st1" d="M44.9,96.1c-0.2,1.6-0.7,4.3,0.2,4.9c1.4-1,0.6-3.8,1.1-5.6c-0.3-0.2-0.4-0.5-0.9-0.6
			C45.1,95.1,45,95.6,44.9,96.1z"/>
		<path class="st1" d="M41.1,74.6c-0.8,2-1.8,5-2.5,7.3c-0.2,0.7-0.8,1.8-0.2,2.3c0.8-0.3,0.8-1.3,1.1-2c0.8-2.6,1.7-5.3,2.3-7.8
			l-0.4-0.1C41.4,74.4,41.2,74.4,41.1,74.6z"/>
		<path class="st1" d="M56.8,27.7c-0.2,0-0.1-0.2-0.4-0.2c-0.3,0.8-0.7,1.8-1,2.7l0.3,0.8C56,29.9,56.4,28.8,56.8,27.7z"/>
		<path class="st1" d="M52.7,16.2l-0.4-0.1c0,0.2-0.2,0.1-0.2,0.4c-0.6,3.9-0.8,7.9-1,11.7h0.6C52.1,24.2,52.5,20.1,52.7,16.2z"/>
		<path class="st1" d="M52.9,70.9h-0.5c0.1,0.4,0.2,0.8,0.4,1.2C52.9,71.7,52.9,71.3,52.9,70.9z"/>
		<path class="st1" d="M33.1,24.2c0,1.4,1.3,2.9,2.2,4C35.8,26.6,34.1,25.4,33.1,24.2z"/>
		<path class="st1" d="M41.4,28.5c0.4,0.9,0.6,2.1,1.6,2.7c-2.6-7.9-5.5-15.6-8.6-23.2C34.1,7.8,33.9,8,33.7,8c0.2,2,1.2,3.9,2,5.8
			C37.7,18.7,39.5,23.8,41.4,28.5z"/>
		<path class="st1" d="M33.3,6c0.4-0.9-0.1-1.8-0.5-2.9c-0.2-0.5-0.5-2.6-1.3-2.6c-1.4,0-0.2,2.4,0.2,3.2C32.1,4.8,32.2,5.9,33.3,6z
			"/>
		<path class="st1" d="M28.6,18.6c0.8,1.1,1.6,2.4,2.8,3.2c0.2-1.4-1.1-2.4-1.8-3.5c-2.2-3.6-4.5-7.2-6.9-10.6l-0.4-0.1
			c-0.2,0.1-0.3,0.3-0.5,0.4c0.4,1.3,1.3,2.4,2.1,3.6C25.5,14,27,16.4,28.6,18.6z"/>
		<path class="st1" d="M46,23.1c0.6-1.5-0.2-3.4-0.4-5.1c-0.2-1.8-0.1-3.8-0.6-5.4c-0.4-0.1-0.5,0.1-0.8,0.1c0.2,2.5,0.9,5,1.2,7.5
			C45.4,21.1,45.1,22.4,46,23.1z"/>
		<path class="st1" d="M30.6,80.5c-1.1,1.5-2.6,3.3-3,5.2c1.1,0.4,1.6-1.1,2.1-2c0.6-1,1.2-2.1,1.6-3C31.2,80.6,30.9,80.6,30.6,80.5
			z"/>
		<path class="st1" d="M20.5,22.3c0.7,0.6,1.5,1.6,2.6,1.7c0.2-0.8-0.8-1.6-1.6-2.4c-0.9-0.9-2.4-2.6-3-1.5
			C18.9,20.9,19.7,21.6,20.5,22.3z"/>
		<path class="st1" d="M53.4,11c0.2-1.5,0.7-3.6-0.2-4.2l-0.3-0.1c-0.3,1.8-1,4.8-0.2,6.3C53.5,12.8,53.3,11.7,53.4,11z"/>
		<path class="st1" d="M90.2,32.9v1.3c-3.2,1.2-6.5,2.6-10,3.4c0.5-1.3,2.2-1.6,3.4-2.1C85.6,34.8,87.9,33.8,90.2,32.9z"/>
		<path class="st1" d="M75,7.3c0.6-0.9,1.7-2,1.3-3l-0.8-0.1c-0.9,1.6-2.2,3.3-2.7,5C74,9.9,74.5,8.2,75,7.3z"/>
		<path class="st1" d="M59.6,32.8c4.2-7.2,8.7-13.9,12.7-21.3c-0.2-0.2-0.9-0.7-1-0.1c-3.7,6.2-7.7,13.4-11.2,19.4
			C59.8,31.4,58.8,32.2,59.6,32.8z"/>
		<path class="st1" d="M59,20.5c-0.2,0-0.1-0.2-0.4-0.2c-0.7,1.1-1,2.8-1.6,4.6C58.4,24.6,58.7,21.9,59,20.5z"/>
		<path class="st1" d="M62.4,10.5c0.5-1.5,1.1-3,1.5-4.4c0.5-1.5,1.5-2.9,1-4.3l-0.6-0.1c0,0.2-0.2,0.1-0.2,0.4
			c-0.8,3.7-2.9,7.7-3.6,11.4c-0.3,1.7-1.4,3.1-0.9,4.7C61.1,16.2,61.5,13.2,62.4,10.5z"/>
		<path class="st1" d="M7.6,54.3c-0.1,0.4-0.4,0.7-0.2,1c1.8,0.2,4.1-0.4,5.9-0.8c0.2-0.4,0-0.5,0-0.8C11.4,53.7,9.7,54.3,7.6,54.3z
			"/>
		<path class="st1" d="M15.5,45.7c-3.4-0.6-8.4-0.9-12-1.2c-1.2-0.1-2.9-0.7-3.5,0.5c5.1,1.1,11.7,1.3,16.8,1.5
			C17,45.5,16,45.8,15.5,45.7z"/>
		<path class="st1" d="M1.8,34.5C3.1,35,5.3,36,5.7,34.8c-1.1-0.9-3.5-1.6-5.2-1.8c-0.3,0-0.3,0.3-0.4,0.6
			C0.4,33.9,1.1,34.3,1.8,34.5z"/>
		<path class="st1" d="M26.9,72.6c-3.4,3.2-6.8,6.8-10,10.1c-0.6,0.6-1.7,1.3-1.6,2.3c1.5,0.3,2.6-1.5,3.5-2.5
			c1.1-1.2,2.2-2.4,3.1-3.6c1.9-1.9,4-3.6,5.4-6.2C27.1,72.7,27.1,72.6,26.9,72.6z"/>
		<path class="st1" d="M11,74.2c-0.9,0.6-1.9,1.1-2.8,1.7c-0.8,0.5-2.1,1.1-2,2.1c1.2,0.7,2.1-0.6,2.9-1.1c0.8-0.6,2.2-1,2.5-2.1
			C11.3,74.5,11.2,74.3,11,74.2z"/>
		<path class="st1" d="M31.4,31.2c-0.7-0.7-1.5-1.6-2.5-2.5c-1-0.9-2.4-2.5-3.1-2.3c0,0.2-0.2,0.1-0.2,0.4c2.1,1.9,4.1,3.8,6.1,5.7
			l0.4-0.6C31.8,31.7,31.6,31.5,31.4,31.2z"/>
		<path class="st1" d="M9.9,36.8c1.6,0.5,3.6,1.7,5.2,1.4c1.4,0.7,3.2,1.4,5.1,2v-0.9c-2.1-0.7-4.2-1.3-6.2-2
			c-2.3-0.8-4.9-2.1-6.5-1.9C7.4,36.8,9.1,36.5,9.9,36.8z"/>
		<path class="st1" d="M20.3,31.2c-0.8-0.4-1.6-0.8-2.4-1.1c-0.1,0-0.2,0.1-0.3,0.1l-0.1,0.4c0.8,0.7,1.7,1.2,2.7,1.8V31.2z"/>
		<path class="st1" d="M78.3,76c-0.6-0.6-1-1.3-1.6-1.9c-2.1-2-4.2-4-6.4-6l0.2,1.5c1.9,1.8,3.8,3.6,5.8,5.3
			c0.4,0.9,1.5,1.7,2.4,2.6c0.7,0.7,1.8,2.5,2.9,1.5C81.2,77.7,79.4,76.9,78.3,76z"/>
		<path class="st1" d="M77.8,38.4c-0.4,0-0.9,0-1.3,0.1l0.4,0.7C77.3,38.9,77.6,38.7,77.8,38.4z"/>
		<path class="st1" d="M69.6,28.6c0.7-0.7,1.3-1.4,2-2.1c1.3-1.2,2.6-2.5,3.6-4l-0.9-0.2c-1.1,1.4-2.3,2.6-3.5,3.9
			c-0.6,0.7-1.4,1.3-2,2C69.1,28.2,69.4,28.4,69.6,28.6z"/>
		<path class="st1" d="M80.6,52.1c0.2,0,0.4,0,0.6,0.1c1.8,0.2,3.7,0.6,5.3,0.3c-0.3-1.4-2.3-0.7-3.6-0.8c-0.7-0.1-1.4-0.1-2-0.2
			L80.6,52.1z"/>
		<path class="st1" d="M90.2,72.3v1.6c-0.7-0.4-1.3-0.9-1.5-1c-3.2-2-6.2-3.7-9.5-5.7c-0.5-0.3-1.3-0.7-1.4-1.3
			c1.1-0.4,2.7,0.8,3.9,1.6c2.4,1.4,4.9,2.8,7.6,4.4C89.4,71.9,89.8,72.1,90.2,72.3z"/>
		<path class="st1" d="M85.8,82.7c-0.8-0.8-1.5-1.9-2.5-2.2c-0.2,0-0.3,0-0.4,0.1c0.1,1.7,2.9,3.9,4.1,4.6
			C88.1,84.1,86.4,83.3,85.8,82.7z"/>
		<path class="st1" d="M84.5,60c0,0.3-0.3,0.2-0.2,0.6c1.8,0.7,3.9,1.7,5.9,1.8v-0.8C88.4,61,86.3,60.1,84.5,60z"/>
		<path class="st1" d="M80.7,28.8c0,0.1,0,0.1,0,0.2c0.7-0.2,1.4-0.8,2-1.2c0.9-0.6,2-1.3,2.4-2c-0.3-0.8-1-0.2-1.2-0.1
			c-1,0.7-2.8,1.5-3.7,2.6c0.1,0,0.2,0.1,0.3,0.2C80.6,28.5,80.7,28.6,80.7,28.8z"/>
		<path class="st1" d="M57.5,69c-0.1,0.2-0.3,0.3-0.4,0.5c0,0,0,0,0,0c0.8,2.1,1.5,4.1,2.3,6.1c0.6,1.5,0.7,3.7,2.2,4.2
			c0.3-0.9-0.5-1.5-0.7-2.2C59.7,74.8,58.6,71.9,57.5,69z"/>
		<path class="st1" d="M64.7,71.2l-0.4-0.1c-0.1,0.2-0.2,0.2-0.2,0.5c1.6,2.1,2.9,4.6,4.3,6.6c0.4,0.7,0.9,1.7,1.8,1.8
			c0.4-0.9-0.6-1.6-1-2.3C67.7,75.5,66.2,73.2,64.7,71.2z"/>
		<path class="st1" d="M62.4,83.2l-0.1,0.4c0.2,0.9,0.5,2,0.9,2.9c0.3,0.9,0.5,2.2,1.6,2.4c0.3-2.1-1.3-3.9-1.9-5.8
			C62.8,83.2,62.6,83.2,62.4,83.2z"/>
		<path class="st1" d="M90.2,42.9V44c-0.3,0-0.6,0-0.9,0.1c-2.8,0.4-5.6,0.9-8.4,1.3l-0.6-0.9C83.7,43.9,87.1,43.3,90.2,42.9z"/>
		<g>
			<path class="st0" d="M39.8,28.9v16.8c0,0.2-0.1,0.4-0.2,0.5c-0.1,0.1-0.3,0.2-0.5,0.2h-4.7c-0.2,0-0.4-0.1-0.5-0.2
				c-0.1-0.1-0.2-0.3-0.2-0.5v-7.1l-1.7,2.8c-0.1,0.2-0.3,0.3-0.4,0.5s-0.3,0.2-0.6,0.2h-1.8c-0.2,0-0.4-0.1-0.6-0.2
				c-0.1-0.1-0.3-0.3-0.4-0.5l-1.7-2.8v7.1c0,0.2-0.1,0.4-0.2,0.5c-0.1,0.1-0.3,0.2-0.5,0.2H21c-0.2,0-0.3-0.1-0.5-0.2
				c-0.1-0.1-0.2-0.3-0.2-0.5V28.9c0-0.2,0.1-0.4,0.2-0.5s0.3-0.2,0.5-0.2h4.1c0.5,0,0.9,0.2,1.1,0.7l3.8,6.3l1.6-2.7l0.4-0.6l1.8-3
				c0.3-0.5,0.6-0.7,1.1-0.7H39c0.2,0,0.4,0.1,0.5,0.2S39.8,28.7,39.8,28.9z"/>
			<path class="st0" d="M60.9,45.7L55.7,31l-0.3-0.8L55,29.1c-0.1-0.2-0.2-0.4-0.4-0.6c-0.2-0.2-0.5-0.3-0.8-0.3h-5.7
				c-0.3,0-0.6,0.1-0.8,0.3c-0.2,0.2-0.3,0.4-0.4,0.6l-5.8,16.6c0,0,0,0.1,0,0.2c0,0.2,0.1,0.3,0.2,0.4c0.1,0.1,0.2,0.2,0.4,0.2h4.8
				c0.5,0,0.9-0.2,1-0.7l0.6-1.7h5.6l0.6,1.7c0.2,0.4,0.5,0.7,1,0.7h4.8c0.2,0,0.3,0,0.4-0.2c0.1-0.1,0.2-0.2,0.2-0.4
				C60.9,45.8,60.9,45.8,60.9,45.7z M49.6,39l1.5-4.8l1.5,4.8H49.6z"/>
			<path class="st0" d="M81.2,45.9c0,0.2-0.1,0.3-0.2,0.4c-0.1,0.1-0.2,0.2-0.4,0.2h-5.9c-0.5,0-0.8-0.2-1.1-0.6l-2.3-3.5l-2.2,3.5
				c-0.2,0.4-0.6,0.6-1.1,0.6h-5.7c-0.2,0-0.3,0-0.4-0.2c-0.1-0.1-0.2-0.2-0.2-0.4c0-0.1,0-0.2,0.1-0.3l5.5-8.5l-4.9-8.1
				c0-0.1-0.1-0.2-0.1-0.3c0-0.2,0.1-0.3,0.2-0.4c0.1-0.1,0.2-0.2,0.4-0.2h5.7c0.4,0,0.6,0.1,0.9,0.4c0.1,0.1,0.1,0.1,0.2,0.2
				l1.8,3.2l2-3.2c0.2-0.4,0.6-0.7,1.1-0.7h5.5v0c0.1,0,0.2,0.1,0.3,0.2c0.1,0.1,0.2,0.2,0.2,0.4c0,0,0,0.1,0,0.2c0,0,0,0.1-0.1,0.1
				l-5,8l0.9,1.4l0.4,0.7l3.4,5.3h0l0.6,0.9l0.2,0.3C81.2,45.7,81.2,45.8,81.2,45.9z"/>
			<path class="st0" d="M27.8,59c0-0.5-0.4-0.8-0.8-0.8h-2.2v-6h3.2c0.5,0,0.8-0.4,0.8-0.8v-2c0-0.5-0.4-0.8-0.8-0.8h-6.9
				c-0.5,0-0.8,0.4-0.8,0.8v20.5c0,0.5,0.4,0.8,0.8,0.8H24c0.5,0,0.8-0.4,0.8-0.8v-8.5H27c0.5,0,0.8-0.4,0.8-0.8V59z"/>
			<path class="st0" d="M36.4,70.6h3.3c1.2,0,0.7-0.6,0.7-1.2v-5.6c0-1.4-0.4-2.7-1.5-3.6c0.8-1,1.5-2.2,1.5-3.6v-2.8
				c0-1.5-0.6-2.9-1.5-3.8c-1-1-2.2-1.5-3.6-1.5h-4.3c-0.5,0-0.8,0.4-0.8,0.8v20.5c0,0.5,0.4,0.8,0.8,0.8c1.3,0,2.1,0,2.7,0
				c0.5,0,0.8-0.4,0.8-0.8v-0.7v-7.2h0.8c0.6,0,0.8,0.3,0.8,0.9v6.7C36,70.1,36.1,70.6,36.4,70.6z M35.2,58.3h-0.8v-6.2h0.8
				c0.6,0,0.8,0.3,0.8,1v4.3C36,58,35.8,58.3,35.2,58.3z"/>
			<path class="st0" d="M46.5,69.8V49.3c0-0.5-0.4-0.8-0.8-0.8h-2.7c-0.5,0-0.8,0.4-0.8,0.8v20.5c0,0.5,0.4,0.8,0.8,0.8h2.7
				C46.1,70.6,46.5,70.2,46.5,69.8z"/>
			<path class="st0" d="M57.1,69.2c1-1,1.6-2.4,1.6-3.9V53.8c0-1.5-0.6-2.9-1.6-3.9c-1-0.9-2.2-1.4-3.6-1.4h-4.3
				c-0.5,0-0.8,0.4-0.8,0.8v20.5c0,0.5,0.4,0.8,0.8,0.8h4.3C54.9,70.6,56.2,70.1,57.1,69.2z M52.8,52.1h0.7c0.5,0,0.8,0.3,0.8,1v13
				c0,0.6-0.2,1-0.8,1h-0.7V52.1z"/>
			<path class="st0" d="M70.6,69.6l-0.2-1.5l-3.1-18.8c-0.1-0.5-0.5-0.8-1-0.8h-2.8c-0.4,0-0.9,0.4-1,0.8l-3.4,20.5
				c-0.1,0.5,0.2,0.8,0.7,0.8h2.9c0.4,0,0.8-0.3,0.9-0.7l0.2-2.6H66l0.2,2.6c0.1,0.4,0.5,0.7,0.9,0.7h2.9c0.5,0,0.8-0.4,0.7-0.8
				L70.6,69.6z M64,64l0.8-8.7l0.8,8.7H64z"/>
			<path class="st0" d="M80.8,48.5h-2.6c-0.5,0-0.9,0.4-1,0.8l-1.8,6.6l-1.8-6.6c-0.1-0.4-0.6-0.8-1-0.8h-2.6
				c-0.5,0-0.7,0.4-0.6,0.8l4,12.1v8.4c0,0.5,0.4,0.8,0.8,0.8h2.6c0.5,0,0.8-0.4,0.8-0.8v-8.3l4-12.2C81.5,48.8,81.3,48.5,80.8,48.5
				z"/>
		</g>
		<path class="st1" d="M90.3,61.6l-0.1,0.8c0,0,0,0,0,0v-0.8C90.2,61.6,90.3,61.6,90.3,61.6z"/>
		<polyline class="st0" points="90.2,59 90.2,22.1 92.8,22.1 92.8,74.3 90.2,74.3 90.2,59.8 		"/>
	</g>
</g>
</svg>
